<?xml version="1.0" standalone="no"?>
<!DOCTYPE svg PUBLIC "-//W3C//DTD SVG 20010904//EN"
 "http://www.w3.org/TR/2001/REC-SVG-20010904/DTD/svg10.dtd">
<svg version="1.0" xmlns="http://www.w3.org/2000/svg"
 width="24.000000pt" height="24.000000pt" viewBox="0 0 24.000000 24.000000"
 preserveAspectRatio="xMidYMid meet">

<g transform="translate(0.000000,24.000000) scale(0.100000,-0.100000)"
fill="#000000" stroke="none">
<path d="M10 120 c0 -40 4 -70 10 -70 6 0 10 11 10 25 0 30 5 31 48 5 41 -25
42 -25 42 5 0 14 2 25 5 25 3 0 23 -11 45 -25 22 -14 42 -25 45 -25 3 0 5 27
5 60 0 33 -2 60 -5 60 -3 0 -23 -11 -45 -25 -49 -31 -50 -31 -50 0 0 30 -1 30
-42 5 -43 -26 -48 -25 -48 5 0 14 -4 25 -10 25 -6 0 -10 -30 -10 -70z"/>
</g>
</svg>
